<svg xmlns="http://www.w3.org/2000/svg" viewBox="0 0 24 24"><path fill="#2D98D4" d="M18 2H2C.897 2 0 2.897 0 4v11c0 1.103.897 2 2 2h16c1.103 0 2-.897 2-2V4c0-1.103-.897-2-2-2z"/><path fill="#FFF" d="M18 2H2C.897 2 0 2.897 0 4v.25c0-1.103.897-2 2-2h16c1.103 0 2 .897 2 2V4c0-1.103-.897-2-2-2z" opacity=".2"/><path fill="#E6E6E5" d="M20 14.505l-7.5-7.487L2.56 17H18c1.103 0 2-.897 2-2v-.495z"/><path fill="#F3F3F3" d="M6 10.018L.183 15.835A2.001 2.001 0 0 0 2 17h10.982L6 10.018z"/><path fill="#010101" d="M2 17h16c1.103 0 2-.897 2-2v-.25c0 1.103-.897 2-2 2H2c-1.103 0-2-.897-2-2V15c0 1.103.897 2 2 2z" opacity=".1"/><circle cx="8" cy="6.018" r="1.982" fill="#FFCF51"/><circle cx="18.5" cy="16.5" r="5.5" fill="#E83829"/><path fill="#F3F3F3" d="M23 16.5c0 1.06-.384 2.023-1 2.793L15.707 13c.77-.616 1.733-1 2.793-1 2.481 0 4.5 2.019 4.5 4.5zM14 16.5c0-1.06.384-2.023 1-2.793L21.293 20c-.77.616-1.733 1-2.793 1a4.505 4.505 0 01-4.5-4.5z"/><path fill="#010101" d="M18.5 21.75a5.622 5.622 0 0 1-5.263-3.654C13.922 20.356 16.018 22 18.5 22s4.578-1.645 5.263-3.904A5.622 5.622 0 0 1 18.5 21.75z" opacity=".1"/><path fill="#FFF" d="M18.5 11.25a5.622 5.622 0 0 1 5.263 3.653 5.5 5.5 0 0 0-10.526 0A5.622 5.622 0 0 1 18.5 11.25z" opacity=".2"/><linearGradient id="a" x1="-.49" x2="24.647" y1="4.608" y2="16.33" gradientUnits="userSpaceOnUse"><stop offset="0" stop-color="#FFF" stop-opacity=".2"/><stop offset="1" stop-color="#FFF" stop-opacity="0"/></linearGradient><path fill="url(#a)" d="M20 11.213V4c0-1.103-.897-2-2-2H2C.897 2 0 2.897 0 4v11c0 1.103.897 2 2 2h11.025a5.506 5.506 0 0 0 5.475 5c3.032 0 5.5-2.467 5.5-5.5 0-2.512-1.695-4.632-4-5.287z"/></svg>