<svg xmlns="http://www.w3.org/2000/svg" viewBox="0 0 24 24"><g data-name="Upload Image"><path fill="#303c42" d="M18.5,11A5.5,5.5,0,1,0,24,16.5,5.51,5.51,0,0,0,18.5,11Zm2.35,4.85a.5.5,0,0,1-.71,0L19,14.71V19.5a.5.5,0,0,1-1,0V14.71l-1.15,1.15a.5.5,0,0,1-.71-.71l2-2a.5.5,0,0,1,.71,0l2,2A.5.5,0,0,1,20.85,15.85Z"/><circle cx="8" cy="6.02" r="2" fill="#303c42"/><path fill="#303c42" d="M18.5,10a6.5,6.5,0,0,1,.93.07.49.49,0,0,0,.4-.12A.5.5,0,0,0,20,9.58V4a2,2,0,0,0-2-2H2A2,2,0,0,0,0,4V15a2,2,0,0,0,2,2h9.5a.5.5,0,0,0,.5-.5A6.51,6.51,0,0,1,18.5,10ZM2,3H18a1,1,0,0,1,1,1V9l-.5,0a7.46,7.46,0,0,0-2.78.53L12.85,6.66a.5.5,0,0,0-.35-.15.39.39,0,0,0-.36.15L8.83,10a.5.5,0,0,0,0,.71L10,11.94a.5.5,0,0,1,0,.71.51.51,0,0,1-.71,0l-3-3a.5.5,0,0,0-.71,0L1,14.31V4A1,1,0,0,1,2,3Z"/></g></svg>